<svg width="220" height="55" viewBox="0 0 220 55" fill="none" xmlns="http://www.w3.org/2000/svg">
<rect width="220" height="55" rx="10" fill="#142232"/>
<path opacity="0.4" d="M32.0755 18H35.4615C36.8637 18 38 19.1459 38 20.56V23.9745C38 25.3886 36.8637 26.5345 35.4615 26.5345H32.0755C30.6732 26.5345 29.537 25.3886 29.537 23.9745V20.56C29.537 19.1459 30.6732 18 32.0755 18Z" fill="#717171"/>
<path fill-rule="evenodd" clip-rule="evenodd" d="M20.5385 18H23.9245C25.3268 18 26.463 19.1459 26.463 20.56V23.9745C26.463 25.3886 25.3268 26.5345 23.9245 26.5345H20.5385C19.1363 26.5345 18 25.3886 18 23.9745V20.56C18 19.1459 19.1363 18 20.5385 18ZM20.5385 29.4655H23.9245C25.3268 29.4655 26.463 30.6114 26.463 32.0255V35.44C26.463 36.8532 25.3268 38 23.9245 38H20.5385C19.1363 38 18 36.8532 18 35.44V32.0255C18 30.6114 19.1363 29.4655 20.5385 29.4655ZM35.4615 29.4655H32.0755C30.6732 29.4655 29.537 30.6114 29.537 32.0255V35.44C29.537 36.8532 30.6732 38 32.0755 38H35.4615C36.8637 38 38 36.8532 38 35.44V32.0255C38 30.6114 36.8637 29.4655 35.4615 29.4655Z" fill="#717171"/>
<path d="M65.4141 22.3636V34H63.6641V23.8636H58.1868V34H56.4368V22.3636H65.4141ZM70.5021 34.1932C69.9491 34.1932 69.4491 34.0909 69.0021 33.8864C68.5552 33.678 68.201 33.3769 67.9396 32.983C67.6821 32.589 67.5533 32.1061 67.5533 31.5341C67.5533 31.0417 67.648 30.6364 67.8374 30.3182C68.0268 30 68.2824 29.7481 68.6044 29.5625C68.9264 29.3769 69.2862 29.2367 69.6839 29.142C70.0817 29.0473 70.487 28.9754 70.8999 28.9261C71.4226 28.8655 71.8468 28.8163 72.1726 28.7784C72.4983 28.7367 72.7351 28.6705 72.8828 28.5795C73.0305 28.4886 73.1044 28.3409 73.1044 28.1364V28.0966C73.1044 27.6004 72.9643 27.2159 72.6839 26.9432C72.4074 26.6705 71.9946 26.5341 71.4453 26.5341C70.8733 26.5341 70.4226 26.661 70.093 26.9148C69.7673 27.1648 69.5419 27.4432 69.4169 27.75L67.8203 27.3864C68.0097 26.8561 68.2862 26.428 68.6499 26.1023C69.0173 25.7727 69.4396 25.5341 69.9169 25.3864C70.3942 25.2348 70.8961 25.1591 71.4226 25.1591C71.7711 25.1591 72.1404 25.2008 72.5305 25.2841C72.9245 25.3636 73.2919 25.5114 73.6328 25.7273C73.9775 25.9432 74.2597 26.2519 74.4794 26.6534C74.6991 27.0511 74.8089 27.5682 74.8089 28.2045V34H73.1499V32.8068H73.0817C72.9718 33.0265 72.8071 33.2424 72.5874 33.4545C72.3677 33.6667 72.0855 33.8428 71.7408 33.983C71.3961 34.1231 70.9832 34.1932 70.5021 34.1932ZM70.8714 32.8295C71.3411 32.8295 71.7427 32.7367 72.076 32.5511C72.4131 32.3655 72.6688 32.1231 72.843 31.8239C73.0211 31.5208 73.1101 31.197 73.1101 30.8523V29.7273C73.0495 29.7879 72.9321 29.8447 72.7578 29.8977C72.5874 29.947 72.3923 29.9905 72.1726 30.0284C71.9529 30.0625 71.7389 30.0947 71.5305 30.125C71.3222 30.1515 71.148 30.1742 71.0078 30.1932C70.6783 30.2348 70.3771 30.3049 70.1044 30.4034C69.8355 30.5019 69.6196 30.6439 69.4567 30.8295C69.2976 31.0114 69.218 31.2538 69.218 31.5568C69.218 31.9773 69.3733 32.2955 69.6839 32.5114C69.9946 32.7235 70.3904 32.8295 70.8714 32.8295ZM82.9865 28.9034V30.375H78.2592V28.9034H82.9865ZM78.7365 25.2727V34H77.0717V25.2727H78.7365ZM84.174 25.2727V34H82.5149V25.2727H84.174ZM90.2081 34.1761C89.3482 34.1761 88.6077 33.9924 87.9865 33.625C87.3691 33.2538 86.8918 32.733 86.5547 32.0625C86.2214 31.3883 86.0547 30.5985 86.0547 29.6932C86.0547 28.7992 86.2214 28.0114 86.5547 27.3295C86.8918 26.6477 87.3615 26.1155 87.9638 25.733C88.5698 25.3504 89.2782 25.1591 90.0888 25.1591C90.5812 25.1591 91.0585 25.2405 91.5206 25.4034C91.9827 25.5663 92.3975 25.822 92.7649 26.1705C93.1323 26.5189 93.4221 26.9716 93.6342 27.5284C93.8464 28.0814 93.9524 28.7538 93.9524 29.5455V30.1477H87.0149V28.875H92.2876C92.2876 28.428 92.1967 28.0322 92.0149 27.6875C91.8331 27.339 91.5774 27.0644 91.2479 26.8636C90.9221 26.6629 90.5395 26.5625 90.1001 26.5625C89.6229 26.5625 89.2062 26.6799 88.8501 26.9148C88.4979 27.1458 88.2251 27.4489 88.032 27.8239C87.8426 28.1951 87.7479 28.5985 87.7479 29.0341V30.0284C87.7479 30.6117 87.8501 31.108 88.0547 31.517C88.263 31.9261 88.5528 32.2386 88.924 32.4545C89.2952 32.6667 89.7289 32.7727 90.2251 32.7727C90.5471 32.7727 90.8407 32.7273 91.1058 32.6364C91.371 32.5417 91.6001 32.4015 91.7933 32.2159C91.9865 32.0303 92.1342 31.8011 92.2365 31.5284L93.8445 31.8182C93.7157 32.2917 93.4846 32.7064 93.1513 33.0625C92.8217 33.4148 92.407 33.6894 91.907 33.8864C91.4107 34.0795 90.8445 34.1761 90.2081 34.1761ZM95.1499 34L95.1442 32.5284H95.4567C95.6991 32.5284 95.9018 32.4773 96.0646 32.375C96.2313 32.2689 96.3677 32.0909 96.4737 31.8409C96.5798 31.5909 96.6612 31.2462 96.718 30.8068C96.7749 30.3636 96.8165 29.8068 96.843 29.1364L96.9964 25.2727H103.087V34H101.423V26.7386H98.5703L98.4339 29.7045C98.3999 30.4242 98.326 31.053 98.2124 31.5909C98.1025 32.1288 97.9415 32.5777 97.7294 32.9375C97.5173 33.2936 97.2446 33.5606 96.9112 33.7386C96.5779 33.9129 96.1726 34 95.6953 34H95.1499ZM106.631 28.2727H109.165C110.234 28.2727 111.056 28.5379 111.631 29.0682C112.207 29.5985 112.495 30.2822 112.495 31.1193C112.495 31.6648 112.366 32.1553 112.109 32.5909C111.851 33.0265 111.474 33.3712 110.978 33.625C110.482 33.875 109.878 34 109.165 34H105.353V25.2727H107.018V32.5341H109.165C109.654 32.5341 110.056 32.4072 110.37 32.1534C110.684 31.8958 110.842 31.5682 110.842 31.1705C110.842 30.75 110.684 30.4072 110.37 30.142C110.056 29.8731 109.654 29.7386 109.165 29.7386H106.631V28.2727ZM119.708 37.2727C119.454 37.2727 119.223 37.2519 119.015 37.2102C118.807 37.1723 118.651 37.1307 118.549 37.0852L118.958 35.6932C119.269 35.7765 119.545 35.8125 119.788 35.8011C120.03 35.7898 120.244 35.6989 120.43 35.5284C120.619 35.358 120.786 35.0795 120.93 34.6932L121.14 34.1136L117.947 25.2727H119.765L121.975 32.0455H122.066L124.276 25.2727H126.1L122.504 35.1648C122.337 35.6193 122.125 36.0038 121.867 36.3182C121.61 36.6364 121.303 36.875 120.947 37.0341C120.591 37.1932 120.178 37.2727 119.708 37.2727ZM127.697 34V25.2727H134.816V34H133.151V26.7386H129.35V34H127.697ZM137.087 37.2727V25.2727H138.746V26.6875H138.888C138.987 26.5057 139.129 26.2955 139.315 26.0568C139.5 25.8182 139.758 25.6098 140.087 25.4318C140.417 25.25 140.853 25.1591 141.394 25.1591C142.099 25.1591 142.728 25.3371 143.281 25.6932C143.834 26.0492 144.267 26.5625 144.582 27.233C144.9 27.9034 145.059 28.7102 145.059 29.6534C145.059 30.5966 144.902 31.4053 144.587 32.0795C144.273 32.75 143.841 33.267 143.292 33.6307C142.743 33.9905 142.116 34.1705 141.411 34.1705C140.881 34.1705 140.447 34.0814 140.11 33.9034C139.777 33.7254 139.515 33.517 139.326 33.2784C139.137 33.0398 138.991 32.8277 138.888 32.642H138.786V37.2727H137.087ZM138.752 29.6364C138.752 30.25 138.841 30.7879 139.019 31.25C139.197 31.7121 139.455 32.0739 139.792 32.3352C140.129 32.5928 140.542 32.7216 141.031 32.7216C141.538 32.7216 141.962 32.5871 142.303 32.3182C142.644 32.0455 142.902 31.6761 143.076 31.2102C143.254 30.7443 143.343 30.2197 143.343 29.6364C143.343 29.0606 143.256 28.5436 143.082 28.0852C142.911 27.6269 142.654 27.2652 142.309 27C141.968 26.7348 141.542 26.6023 141.031 26.6023C140.538 26.6023 140.121 26.7292 139.781 26.983C139.443 27.2367 139.188 27.5909 139.013 28.0455C138.839 28.5 138.752 29.0303 138.752 29.6364ZM149.502 34.1932C148.949 34.1932 148.449 34.0909 148.002 33.8864C147.555 33.678 147.201 33.3769 146.94 32.983C146.682 32.589 146.553 32.1061 146.553 31.5341C146.553 31.0417 146.648 30.6364 146.837 30.3182C147.027 30 147.282 29.7481 147.604 29.5625C147.926 29.3769 148.286 29.2367 148.684 29.142C149.082 29.0473 149.487 28.9754 149.9 28.9261C150.423 28.8655 150.847 28.8163 151.173 28.7784C151.498 28.7367 151.735 28.6705 151.883 28.5795C152.031 28.4886 152.104 28.3409 152.104 28.1364V28.0966C152.104 27.6004 151.964 27.2159 151.684 26.9432C151.407 26.6705 150.995 26.5341 150.445 26.5341C149.873 26.5341 149.423 26.661 149.093 26.9148C148.767 27.1648 148.542 27.4432 148.417 27.75L146.82 27.3864C147.01 26.8561 147.286 26.428 147.65 26.1023C148.017 25.7727 148.44 25.5341 148.917 25.3864C149.394 25.2348 149.896 25.1591 150.423 25.1591C150.771 25.1591 151.14 25.2008 151.531 25.2841C151.924 25.3636 152.292 25.5114 152.633 25.7273C152.978 25.9432 153.26 26.2519 153.479 26.6534C153.699 27.0511 153.809 27.5682 153.809 28.2045V34H152.15V32.8068H152.082C151.972 33.0265 151.807 33.2424 151.587 33.4545C151.368 33.6667 151.085 33.8428 150.741 33.983C150.396 34.1231 149.983 34.1932 149.502 34.1932ZM149.871 32.8295C150.341 32.8295 150.743 32.7367 151.076 32.5511C151.413 32.3655 151.669 32.1231 151.843 31.8239C152.021 31.5208 152.11 31.197 152.11 30.8523V29.7273C152.049 29.7879 151.932 29.8447 151.758 29.8977C151.587 29.947 151.392 29.9905 151.173 30.0284C150.953 30.0625 150.739 30.0947 150.531 30.125C150.322 30.1515 150.148 30.1742 150.008 30.1932C149.678 30.2348 149.377 30.3049 149.104 30.4034C148.835 30.5019 148.62 30.6439 148.457 30.8295C148.298 31.0114 148.218 31.2538 148.218 31.5568C148.218 31.9773 148.373 32.2955 148.684 32.5114C148.995 32.7235 149.39 32.8295 149.871 32.8295ZM156.072 34V25.2727H159.691C160.676 25.2727 161.456 25.483 162.032 25.9034C162.608 26.3201 162.896 26.8864 162.896 27.6023C162.896 28.1136 162.733 28.5189 162.407 28.8182C162.081 29.1174 161.649 29.3182 161.112 29.4205C161.502 29.4659 161.86 29.5833 162.185 29.7727C162.511 29.9583 162.772 30.2083 162.969 30.5227C163.17 30.8371 163.271 31.2121 163.271 31.6477C163.271 32.1098 163.151 32.5189 162.913 32.875C162.674 33.2273 162.327 33.5038 161.873 33.7045C161.422 33.9015 160.879 34 160.242 34H156.072ZM157.668 32.5795H160.242C160.663 32.5795 160.992 32.4792 161.231 32.2784C161.469 32.0777 161.589 31.8049 161.589 31.4602C161.589 31.0549 161.469 30.7367 161.231 30.5057C160.992 30.2708 160.663 30.1534 160.242 30.1534H157.668V32.5795ZM157.668 28.9091H159.708C160.026 28.9091 160.299 28.8636 160.526 28.7727C160.757 28.6818 160.933 28.553 161.055 28.3864C161.18 28.2159 161.242 28.0152 161.242 27.7841C161.242 27.447 161.104 27.1837 160.827 26.9943C160.551 26.8049 160.172 26.7102 159.691 26.7102H157.668V28.9091ZM164.447 34L164.441 32.5284H164.754C164.996 32.5284 165.199 32.4773 165.362 32.375C165.528 32.2689 165.665 32.0909 165.771 31.8409C165.877 31.5909 165.958 31.2462 166.015 30.8068C166.072 30.3636 166.113 29.8068 166.14 29.1364L166.293 25.2727H172.384V34H170.719V26.7386H167.867L167.731 29.7045C167.697 30.4242 167.623 31.053 167.509 31.5909C167.399 32.1288 167.238 32.5777 167.026 32.9375C166.814 33.2936 166.541 33.5606 166.208 33.7386C165.875 33.9129 165.469 34 164.992 34H164.447ZM178.411 34.1761C177.551 34.1761 176.811 33.9924 176.19 33.625C175.572 33.2538 175.095 32.733 174.758 32.0625C174.424 31.3883 174.258 30.5985 174.258 29.6932C174.258 28.7992 174.424 28.0114 174.758 27.3295C175.095 26.6477 175.565 26.1155 176.167 25.733C176.773 25.3504 177.481 25.1591 178.292 25.1591C178.784 25.1591 179.262 25.2405 179.724 25.4034C180.186 25.5663 180.601 25.822 180.968 26.1705C181.335 26.5189 181.625 26.9716 181.837 27.5284C182.049 28.0814 182.156 28.7538 182.156 29.5455V30.1477H175.218V28.875H180.491C180.491 28.428 180.4 28.0322 180.218 27.6875C180.036 27.339 179.781 27.0644 179.451 26.8636C179.125 26.6629 178.743 26.5625 178.303 26.5625C177.826 26.5625 177.409 26.6799 177.053 26.9148C176.701 27.1458 176.428 27.4489 176.235 27.8239C176.046 28.1951 175.951 28.5985 175.951 29.0341V30.0284C175.951 30.6117 176.053 31.108 176.258 31.517C176.466 31.9261 176.756 32.2386 177.127 32.4545C177.498 32.6667 177.932 32.7727 178.428 32.7727C178.75 32.7727 179.044 32.7273 179.309 32.6364C179.574 32.5417 179.803 32.4015 179.996 32.2159C180.19 32.0303 180.337 31.8011 180.44 31.5284L182.048 31.8182C181.919 32.2917 181.688 32.7064 181.354 33.0625C181.025 33.4148 180.61 33.6894 180.11 33.8864C179.614 34.0795 179.048 34.1761 178.411 34.1761ZM189.955 28.9034V30.375H185.228V28.9034H189.955ZM185.705 25.2727V34H184.04V25.2727H185.705ZM191.143 25.2727V34H189.484V25.2727H191.143ZM195.08 31.6193L198.927 25.2727H200.756V34H199.092V27.6477L195.262 34H193.415V25.2727H195.08V31.6193ZM208.245 34V26.7216H206.154C205.658 26.7216 205.272 26.8371 204.995 27.0682C204.719 27.2992 204.58 27.6023 204.58 27.9773C204.58 28.3485 204.707 28.6477 204.961 28.875C205.219 29.0985 205.578 29.2102 206.04 29.2102H208.739V30.5852H206.04C205.397 30.5852 204.84 30.4792 204.37 30.267C203.904 30.0511 203.544 29.7462 203.29 29.3523C203.04 28.9583 202.915 28.4924 202.915 27.9545C202.915 27.4053 203.044 26.9318 203.302 26.5341C203.563 26.1326 203.936 25.822 204.421 25.6023C204.91 25.3826 205.487 25.2727 206.154 25.2727H209.842V34H208.245ZM202.518 34L204.978 29.5909H206.717L204.256 34H202.518Z" fill="white"/>
</svg>
