<svg width="145" height="39" viewBox="0 0 145 39" fill="none" xmlns="http://www.w3.org/2000/svg">
<path d="M59.9605 12.898H54.8685V6.30273C54.8685 5.58276 54.4035 5 53.829 5L15.0891 5C14.5146 5 14.0496 5.58276 14.0496 6.30273V16.6986L1.43933 10.1171C1.11848 9.95039 0.752581 9.99468 0.462914 10.2361C0.173939 10.4776 0 10.8849 0 11.32V31.6791C0 32.1142 0.173246 32.5216 0.462914 32.763C0.63616 32.908 0.837126 32.9819 1.03948 32.9819C1.17461 32.9819 1.31043 32.9489 1.43933 32.882L14.0496 26.3041V36.6973C14.0496 37.4172 14.5146 38 15.0891 38H53.829C54.4035 38 54.8685 37.4172 54.8685 36.6973V30.0941H59.9605C60.535 30.0941 61 29.5114 61 28.7914V14.2016C61 13.4817 60.5343 12.898 59.9605 12.898ZM14.0267 23.4928L2.07895 29.7259V13.2741L14.0212 19.5072C14.0302 19.5116 14.0399 19.5133 14.0489 19.5177V23.4849C14.042 23.4884 14.0343 23.4893 14.0267 23.4928ZM52.7895 35.3945H16.1285V7.60547H52.7895V35.3945ZM58.921 27.4887H54.8685V15.5044H58.921V27.4887Z" fill="#009ED6"/>
<path d="M58.921 27.4887H54.8685V15.5044H58.921V27.4887Z" fill="#009ED6"/>
<path d="M52.7895 35.3945H16.1285V7.60547H52.7895V35.3945Z" fill="#009ED6"/>
<path d="M14.0267 23.4928L2.07895 29.7259V13.2741L14.0212 19.5072C14.0302 19.5116 14.0399 19.5133 14.0489 19.5177V23.4849C14.042 23.4884 14.0343 23.4893 14.0267 23.4928Z" fill="#009ED6"/>
<circle cx="49" cy="12" r="3" fill="white"/>
<path d="M98.7656 32H93.1406L84.1719 15.7812V32H78.8281V8.73438H86L93.4219 22.0625V8.73438H98.7656V32ZM122.922 8.73438L114.922 32H108.828L100.828 8.73438H106.891L111.953 24.5L117.016 8.73438H122.922ZM122.578 32L130.438 8.73438H136.812L144.672 32H138.656L137.203 27.25H129.891L128.438 32H122.578ZM135.922 23.0312L133.547 15.3594L131.172 23.0312H135.922Z" fill="#202D4F"/>
</svg>
