<svg width="220" height="55" viewBox="0 0 220 55" fill="none" xmlns="http://www.w3.org/2000/svg">
<rect width="220" height="55" rx="10" fill="#142232"/>
<path d="M64.206 22.3636V23.875H58.706V34H56.9503V22.3636H64.206ZM65.3608 34L65.3551 32.5284H65.6676C65.91 32.5284 66.1127 32.4773 66.2756 32.375C66.4422 32.2689 66.5786 32.0909 66.6847 31.8409C66.7907 31.5909 66.8722 31.2462 66.929 30.8068C66.9858 30.3636 67.0275 29.8068 67.054 29.1364L67.2074 25.2727H73.2983V34H71.6335V26.7386H68.7812L68.6449 29.7045C68.6108 30.4242 68.5369 31.053 68.4233 31.5909C68.3134 32.1288 68.1525 32.5777 67.9403 32.9375C67.7282 33.2936 67.4555 33.5606 67.1222 33.7386C66.7888 33.9129 66.3835 34 65.9062 34H65.3608ZM78.1037 34.1932C77.5507 34.1932 77.0507 34.0909 76.6037 33.8864C76.1567 33.678 75.8026 33.3769 75.5412 32.983C75.2836 32.589 75.1548 32.1061 75.1548 31.5341C75.1548 31.0417 75.2495 30.6364 75.4389 30.3182C75.6283 30 75.884 29.7481 76.206 29.5625C76.5279 29.3769 76.8878 29.2367 77.2855 29.142C77.6832 29.0473 78.0885 28.9754 78.5014 28.9261C79.0241 28.8655 79.4484 28.8163 79.7741 28.7784C80.0999 28.7367 80.3366 28.6705 80.4844 28.5795C80.6321 28.4886 80.706 28.3409 80.706 28.1364V28.0966C80.706 27.6004 80.5658 27.2159 80.2855 26.9432C80.009 26.6705 79.5961 26.5341 79.0469 26.5341C78.4749 26.5341 78.0241 26.661 77.6946 26.9148C77.3688 27.1648 77.1435 27.4432 77.0185 27.75L75.4219 27.3864C75.6113 26.8561 75.8878 26.428 76.2514 26.1023C76.6188 25.7727 77.0412 25.5341 77.5185 25.3864C77.9957 25.2348 78.4976 25.1591 79.0241 25.1591C79.3726 25.1591 79.742 25.2008 80.1321 25.2841C80.526 25.3636 80.8935 25.5114 81.2344 25.7273C81.5791 25.9432 81.8613 26.2519 82.081 26.6534C82.3007 27.0511 82.4105 27.5682 82.4105 28.2045V34H80.7514V32.8068H80.6832C80.5734 33.0265 80.4086 33.2424 80.1889 33.4545C79.9692 33.6667 79.687 33.8428 79.3423 33.983C78.9976 34.1231 78.5848 34.1932 78.1037 34.1932ZM78.473 32.8295C78.9427 32.8295 79.3442 32.7367 79.6776 32.5511C80.0147 32.3655 80.2704 32.1231 80.4446 31.8239C80.6226 31.5208 80.7116 31.197 80.7116 30.8523V29.7273C80.651 29.7879 80.5336 29.8447 80.3594 29.8977C80.1889 29.947 79.9938 29.9905 79.7741 30.0284C79.5545 30.0625 79.3404 30.0947 79.1321 30.125C78.9238 30.1515 78.7495 30.1742 78.6094 30.1932C78.2798 30.2348 77.9787 30.3049 77.706 30.4034C77.437 30.5019 77.2211 30.6439 77.0582 30.8295C76.8991 31.0114 76.8196 31.2538 76.8196 31.5568C76.8196 31.9773 76.9749 32.2955 77.2855 32.5114C77.5961 32.7235 77.992 32.8295 78.473 32.8295ZM84.6733 34V25.2727H88.2926C89.2775 25.2727 90.0578 25.483 90.6335 25.9034C91.2093 26.3201 91.4972 26.8864 91.4972 27.6023C91.4972 28.1136 91.3343 28.5189 91.0085 28.8182C90.6828 29.1174 90.2509 29.3182 89.7131 29.4205C90.1032 29.4659 90.4612 29.5833 90.7869 29.7727C91.1127 29.9583 91.3741 30.2083 91.571 30.5227C91.7718 30.8371 91.8722 31.2121 91.8722 31.6477C91.8722 32.1098 91.7528 32.5189 91.5142 32.875C91.2756 33.2273 90.929 33.5038 90.4744 33.7045C90.0237 33.9015 89.4801 34 88.8438 34H84.6733ZM86.2699 32.5795H88.8438C89.2642 32.5795 89.5938 32.4792 89.8324 32.2784C90.071 32.0777 90.1903 31.8049 90.1903 31.4602C90.1903 31.0549 90.071 30.7367 89.8324 30.5057C89.5938 30.2708 89.2642 30.1534 88.8438 30.1534H86.2699V32.5795ZM86.2699 28.9091H88.3097C88.6278 28.9091 88.9006 28.8636 89.1278 28.7727C89.3589 28.6818 89.535 28.553 89.6562 28.3864C89.7812 28.2159 89.8438 28.0152 89.8438 27.7841C89.8438 27.447 89.7055 27.1837 89.429 26.9943C89.1525 26.8049 88.7737 26.7102 88.2926 26.7102H86.2699V28.9091ZM99.6506 28.9034V30.375H94.9233V28.9034H99.6506ZM95.4006 25.2727V34H93.7358V25.2727H95.4006ZM100.838 25.2727V34H99.179V25.2727H100.838ZM105.651 34.1932C105.098 34.1932 104.598 34.0909 104.151 33.8864C103.704 33.678 103.349 33.3769 103.088 32.983C102.83 32.589 102.702 32.1061 102.702 31.5341C102.702 31.0417 102.796 30.6364 102.986 30.3182C103.175 30 103.431 29.7481 103.753 29.5625C104.075 29.3769 104.435 29.2367 104.832 29.142C105.23 29.0473 105.635 28.9754 106.048 28.9261C106.571 28.8655 106.995 28.8163 107.321 28.7784C107.647 28.7367 107.884 28.6705 108.031 28.5795C108.179 28.4886 108.253 28.3409 108.253 28.1364V28.0966C108.253 27.6004 108.113 27.2159 107.832 26.9432C107.556 26.6705 107.143 26.5341 106.594 26.5341C106.022 26.5341 105.571 26.661 105.241 26.9148C104.916 27.1648 104.69 27.4432 104.565 27.75L102.969 27.3864C103.158 26.8561 103.435 26.428 103.798 26.1023C104.166 25.7727 104.588 25.5341 105.065 25.3864C105.543 25.2348 106.045 25.1591 106.571 25.1591C106.92 25.1591 107.289 25.2008 107.679 25.2841C108.073 25.3636 108.44 25.5114 108.781 25.7273C109.126 25.9432 109.408 26.2519 109.628 26.6534C109.848 27.0511 109.957 27.5682 109.957 28.2045V34H108.298V32.8068H108.23C108.12 33.0265 107.955 33.2424 107.736 33.4545C107.516 33.6667 107.234 33.8428 106.889 33.983C106.545 34.1231 106.132 34.1932 105.651 34.1932ZM106.02 32.8295C106.49 32.8295 106.891 32.7367 107.224 32.5511C107.562 32.3655 107.817 32.1231 107.991 31.8239C108.17 31.5208 108.259 31.197 108.259 30.8523V29.7273C108.198 29.7879 108.08 29.8447 107.906 29.8977C107.736 29.947 107.541 29.9905 107.321 30.0284C107.101 30.0625 106.887 30.0947 106.679 30.125C106.471 30.1515 106.296 30.1742 106.156 30.1932C105.827 30.2348 105.526 30.3049 105.253 30.4034C104.984 30.5019 104.768 30.6439 104.605 30.8295C104.446 31.0114 104.366 31.2538 104.366 31.5568C104.366 31.9773 104.522 32.2955 104.832 32.5114C105.143 32.7235 105.539 32.8295 106.02 32.8295ZM117.425 34V26.7216H115.334C114.838 26.7216 114.451 26.8371 114.175 27.0682C113.898 27.2992 113.76 27.6023 113.76 27.9773C113.76 28.3485 113.887 28.6477 114.141 28.875C114.398 29.0985 114.758 29.2102 115.22 29.2102H117.919V30.5852H115.22C114.576 30.5852 114.019 30.4792 113.55 30.267C113.084 30.0511 112.724 29.7462 112.47 29.3523C112.22 28.9583 112.095 28.4924 112.095 27.9545C112.095 27.4053 112.224 26.9318 112.482 26.5341C112.743 26.1326 113.116 25.822 113.601 25.6023C114.089 25.3826 114.667 25.2727 115.334 25.2727H119.021V34H117.425ZM111.697 34L114.158 29.5909H115.896L113.436 34H111.697ZM129.193 34.1761C128.348 34.1761 127.621 33.9848 127.011 33.6023C126.405 33.2159 125.939 32.6837 125.614 32.0057C125.288 31.3277 125.125 30.5511 125.125 29.6761C125.125 28.7898 125.292 28.0076 125.625 27.3295C125.958 26.6477 126.428 26.1155 127.034 25.733C127.64 25.3504 128.354 25.1591 129.176 25.1591C129.839 25.1591 130.43 25.2822 130.949 25.5284C131.468 25.7708 131.886 26.1117 132.205 26.5511C132.527 26.9905 132.718 27.5038 132.778 28.0909H131.125C131.034 27.6818 130.826 27.3295 130.5 27.0341C130.178 26.7386 129.746 26.5909 129.205 26.5909C128.731 26.5909 128.316 26.7159 127.96 26.9659C127.608 27.2121 127.333 27.5644 127.136 28.0227C126.939 28.4773 126.841 29.0152 126.841 29.6364C126.841 30.2727 126.938 30.822 127.131 31.2841C127.324 31.7462 127.597 32.1042 127.949 32.358C128.305 32.6117 128.723 32.7386 129.205 32.7386C129.527 32.7386 129.818 32.6799 130.08 32.5625C130.345 32.4413 130.566 32.2689 130.744 32.0455C130.926 31.822 131.053 31.553 131.125 31.2386H132.778C132.718 31.803 132.534 32.3068 132.227 32.75C131.92 33.1932 131.509 33.5417 130.994 33.7955C130.483 34.0492 129.883 34.1761 129.193 34.1761ZM133.935 26.7386V25.2727H141.298V26.7386H138.452V34H136.793V26.7386H133.935ZM143.095 37.2727V25.2727H144.754V26.6875H144.896C144.995 26.5057 145.137 26.2955 145.322 26.0568C145.508 25.8182 145.766 25.6098 146.095 25.4318C146.425 25.25 146.86 25.1591 147.402 25.1591C148.107 25.1591 148.735 25.3371 149.288 25.6932C149.841 26.0492 150.275 26.5625 150.589 27.233C150.908 27.9034 151.067 28.7102 151.067 29.6534C151.067 30.5966 150.91 31.4053 150.595 32.0795C150.281 32.75 149.849 33.267 149.3 33.6307C148.75 33.9905 148.124 34.1705 147.419 34.1705C146.889 34.1705 146.455 34.0814 146.118 33.9034C145.785 33.7254 145.523 33.517 145.334 33.2784C145.144 33.0398 144.999 32.8277 144.896 32.642H144.794V37.2727H143.095ZM144.76 29.6364C144.76 30.25 144.849 30.7879 145.027 31.25C145.205 31.7121 145.463 32.0739 145.8 32.3352C146.137 32.5928 146.55 32.7216 147.038 32.7216C147.546 32.7216 147.97 32.5871 148.311 32.3182C148.652 32.0455 148.91 31.6761 149.084 31.2102C149.262 30.7443 149.351 30.2197 149.351 29.6364C149.351 29.0606 149.264 28.5436 149.089 28.0852C148.919 27.6269 148.661 27.2652 148.317 27C147.976 26.7348 147.55 26.6023 147.038 26.6023C146.546 26.6023 146.129 26.7292 145.788 26.983C145.451 27.2367 145.196 27.5909 145.021 28.0455C144.847 28.5 144.76 29.0303 144.76 29.6364ZM155.51 34.1932C154.957 34.1932 154.457 34.0909 154.01 33.8864C153.563 33.678 153.209 33.3769 152.947 32.983C152.69 32.589 152.561 32.1061 152.561 31.5341C152.561 31.0417 152.656 30.6364 152.845 30.3182C153.035 30 153.29 29.7481 153.612 29.5625C153.934 29.3769 154.294 29.2367 154.692 29.142C155.089 29.0473 155.495 28.9754 155.908 28.9261C156.43 28.8655 156.855 28.8163 157.18 28.7784C157.506 28.7367 157.743 28.6705 157.891 28.5795C158.038 28.4886 158.112 28.3409 158.112 28.1364V28.0966C158.112 27.6004 157.972 27.2159 157.692 26.9432C157.415 26.6705 157.002 26.5341 156.453 26.5341C155.881 26.5341 155.43 26.661 155.101 26.9148C154.775 27.1648 154.55 27.4432 154.425 27.75L152.828 27.3864C153.018 26.8561 153.294 26.428 153.658 26.1023C154.025 25.7727 154.447 25.5341 154.925 25.3864C155.402 25.2348 155.904 25.1591 156.43 25.1591C156.779 25.1591 157.148 25.2008 157.538 25.2841C157.932 25.3636 158.3 25.5114 158.641 25.7273C158.985 25.9432 159.268 26.2519 159.487 26.6534C159.707 27.0511 159.817 27.5682 159.817 28.2045V34H158.158V32.8068H158.089C157.98 33.0265 157.815 33.2424 157.595 33.4545C157.375 33.6667 157.093 33.8428 156.749 33.983C156.404 34.1231 155.991 34.1932 155.51 34.1932ZM155.879 32.8295C156.349 32.8295 156.75 32.7367 157.084 32.5511C157.421 32.3655 157.677 32.1231 157.851 31.8239C158.029 31.5208 158.118 31.197 158.118 30.8523V29.7273C158.057 29.7879 157.94 29.8447 157.766 29.8977C157.595 29.947 157.4 29.9905 157.18 30.0284C156.961 30.0625 156.747 30.0947 156.538 30.125C156.33 30.1515 156.156 30.1742 156.016 30.1932C155.686 30.2348 155.385 30.3049 155.112 30.4034C154.843 30.5019 154.627 30.6439 154.464 30.8295C154.305 31.0114 154.226 31.2538 154.226 31.5568C154.226 31.9773 154.381 32.2955 154.692 32.5114C155.002 32.7235 155.398 32.8295 155.879 32.8295ZM167.994 28.9034V30.375H163.267V28.9034H167.994ZM163.744 25.2727V34H162.08V25.2727H163.744ZM169.182 25.2727V34H167.523V25.2727H169.182ZM173.119 31.6193L176.966 25.2727H178.795V34H177.131V27.6477L173.301 34H171.455V25.2727H173.119V31.6193ZM188.199 25.2727V32.608H189.477V36.8125H187.801V34H181.08V25.2727H182.744V32.5341H186.54V25.2727H188.199ZM193.901 34.1932C193.348 34.1932 192.848 34.0909 192.401 33.8864C191.954 33.678 191.599 33.3769 191.338 32.983C191.08 32.589 190.952 32.1061 190.952 31.5341C190.952 31.0417 191.046 30.6364 191.236 30.3182C191.425 30 191.681 29.7481 192.003 29.5625C192.325 29.3769 192.685 29.2367 193.082 29.142C193.48 29.0473 193.885 28.9754 194.298 28.9261C194.821 28.8655 195.245 28.8163 195.571 28.7784C195.897 28.7367 196.134 28.6705 196.281 28.5795C196.429 28.4886 196.503 28.3409 196.503 28.1364V28.0966C196.503 27.6004 196.363 27.2159 196.082 26.9432C195.806 26.6705 195.393 26.5341 194.844 26.5341C194.272 26.5341 193.821 26.661 193.491 26.9148C193.166 27.1648 192.94 27.4432 192.815 27.75L191.219 27.3864C191.408 26.8561 191.685 26.428 192.048 26.1023C192.416 25.7727 192.838 25.5341 193.315 25.3864C193.793 25.2348 194.295 25.1591 194.821 25.1591C195.17 25.1591 195.539 25.2008 195.929 25.2841C196.323 25.3636 196.69 25.5114 197.031 25.7273C197.376 25.9432 197.658 26.2519 197.878 26.6534C198.098 27.0511 198.207 27.5682 198.207 28.2045V34H196.548V32.8068H196.48C196.37 33.0265 196.205 33.2424 195.986 33.4545C195.766 33.6667 195.484 33.8428 195.139 33.983C194.795 34.1231 194.382 34.1932 193.901 34.1932ZM194.27 32.8295C194.74 32.8295 195.141 32.7367 195.474 32.5511C195.812 32.3655 196.067 32.1231 196.241 31.8239C196.42 31.5208 196.509 31.197 196.509 30.8523V29.7273C196.448 29.7879 196.33 29.8447 196.156 29.8977C195.986 29.947 195.791 29.9905 195.571 30.0284C195.351 30.0625 195.137 30.0947 194.929 30.125C194.721 30.1515 194.546 30.1742 194.406 30.1932C194.077 30.2348 193.776 30.3049 193.503 30.4034C193.234 30.5019 193.018 30.6439 192.855 30.8295C192.696 31.0114 192.616 31.2538 192.616 31.5568C192.616 31.9773 192.772 32.2955 193.082 32.5114C193.393 32.7235 193.789 32.8295 194.27 32.8295Z" fill="white"/>
<path d="M24.1437 36.7821V33.7152C24.1437 32.9381 24.7757 32.3067 25.5584 32.3018H28.4326C29.2189 32.3018 29.8563 32.9346 29.8563 33.7152V36.7732C29.8562 37.4473 30.404 37.9951 31.0829 38H33.0438C33.9596 38.0023 34.8388 37.6428 35.4872 37.0007C36.1356 36.3586 36.5 35.4868 36.5 34.5775V25.8658C36.5 25.1314 36.1721 24.4347 35.6046 23.9635L28.943 18.6743C27.7785 17.7491 26.1154 17.779 24.9854 18.7454L18.467 23.9635C17.8727 24.4208 17.5176 25.1196 17.5 25.8658V34.5686C17.5 36.4637 19.0474 38 20.9562 38H22.8723C23.1992 38.0023 23.5135 37.8751 23.7455 37.6464C23.9775 37.4178 24.1079 37.1067 24.1079 36.7821H24.1437Z" fill="#717171"/>
</svg>
