<svg width="55" height="55" viewBox="0 0 55 55" fill="none" xmlns="http://www.w3.org/2000/svg">
<rect width="55" height="55" rx="10" fill="#142232"/>
<path d="M24.1437 35.7821V32.7152C24.1437 31.9381 24.7757 31.3067 25.5584 31.3018H28.4326C29.2189 31.3018 29.8563 31.9346 29.8563 32.7152V35.7732C29.8562 36.4473 30.404 36.9951 31.0829 37H33.0438C33.9596 37.0023 34.8388 36.6428 35.4872 36.0007C36.1356 35.3586 36.5 34.4868 36.5 33.5775V24.8658C36.5 24.1314 36.1721 23.4347 35.6046 22.9635L28.943 17.6743C27.7785 16.7491 26.1154 16.779 24.9854 17.7454L18.467 22.9635C17.8727 23.4208 17.5176 24.1196 17.5 24.8658V33.5686C17.5 35.4637 19.0474 37 20.9562 37H22.8723C23.1992 37.0023 23.5135 36.8751 23.7455 36.6464C23.9775 36.4178 24.1079 36.1067 24.1079 35.7821H24.1437Z" fill="#717171"/>
</svg>
