<svg width="35" height="35" viewBox="0 0 35 35" fill="none" xmlns="http://www.w3.org/2000/svg">
<path opacity="0.4" d="M2.91675 9.40183C2.91675 5.82746 5.87751 2.91663 9.51503 2.91663H16.75C20.3801 2.91663 23.3334 5.81871 23.3334 9.38725V25.5981C23.3334 29.1739 20.3726 32.0833 16.7337 32.0833H9.50167C5.87009 32.0833 2.91675 29.1812 2.91675 25.6127V24.2418V9.40183Z" stroke="black" stroke-width="2"/>
<path d="M31.761 16.7048L27.6109 12.4625C27.182 12.025 26.4917 12.025 26.0642 12.4654C25.6381 12.9059 25.6395 13.6161 26.0671 14.0536L28.341 16.3767H26.1608H13.9249C13.3213 16.3767 12.8313 16.8798 12.8313 17.4996C12.8313 18.1209 13.3213 18.6225 13.9249 18.6225H28.341L26.0671 20.9457C25.6395 21.3832 25.6381 22.0934 26.0642 22.5338C26.2787 22.754 26.5585 22.8648 26.8397 22.8648C27.1181 22.8648 27.3979 22.754 27.6109 22.5367L31.761 18.2959C31.967 18.0844 32.0834 17.7986 32.0834 17.4996C32.0834 17.2021 31.967 16.9163 31.761 16.7048Z" fill="black"/>
</svg>
