<svg width="35" height="35" viewBox="0 0 35 35" fill="none" xmlns="http://www.w3.org/2000/svg">
<path d="M17.5175 21.6273C15.1777 21.6273 13.2849 19.8044 13.2849 17.5148C13.2849 15.2252 15.1777 13.3877 17.5175 13.3877C19.8574 13.3877 21.7054 15.2252 21.7054 17.5148C21.7054 19.8044 19.8574 21.6273 17.5175 21.6273Z" fill="black"/>
<path d="M17.5175 21.6273C15.1777 21.6273 13.2849 19.8044 13.2849 17.5148C13.2849 15.2252 15.1777 13.3877 17.5175 13.3877C19.8574 13.3877 21.7054 15.2252 21.7054 17.5148C21.7054 19.8044 19.8574 21.6273 17.5175 21.6273" stroke="black"/>
<path opacity="0.4" d="M30.9605 20.9565C30.6774 20.519 30.275 20.0815 29.7533 19.8044C29.336 19.6002 29.0678 19.2648 28.8293 18.871C28.0692 17.6169 28.5163 15.969 29.7831 15.2252C31.2735 14.394 31.7504 12.5419 30.886 11.0981L29.8875 9.37729C29.038 7.93354 27.175 7.42312 25.6996 8.26895C24.3881 8.96895 22.704 8.50229 21.9439 7.2627C21.7054 6.85437 21.5713 6.41687 21.6011 5.97937C21.6458 5.41062 21.467 4.87104 21.1987 4.43354C20.6473 3.52937 19.6487 2.91687 18.5459 2.91687H16.4445C15.3565 2.94604 14.358 3.52937 13.8065 4.43354C13.5234 4.87104 13.3594 5.41062 13.3892 5.97937C13.4191 6.41687 13.2849 6.85437 13.0465 7.2627C12.2864 8.50229 10.6023 8.96895 9.30568 8.26895C7.81532 7.42312 5.96728 7.93354 5.10288 9.37729L4.10434 11.0981C3.25484 12.5419 3.73175 14.394 5.2072 15.2252C6.474 15.969 6.92111 17.6169 6.17593 18.871C5.92257 19.2648 5.65431 19.6002 5.23701 19.8044C4.73029 20.0815 4.28318 20.519 4.04472 20.9565C3.49329 21.8606 3.5231 22.9981 4.07453 23.946L5.10288 25.696C5.65431 26.6294 6.68265 27.2127 7.75571 27.2127C8.26243 27.2127 8.85857 27.0669 9.33548 26.7752C9.70807 26.5273 10.1552 26.4398 10.647 26.4398C12.1224 26.4398 13.3594 27.6502 13.3892 29.094C13.3892 30.771 14.7604 32.0835 16.4892 32.0835H18.5161C20.23 32.0835 21.6011 30.771 21.6011 29.094C21.6458 27.6502 22.8828 26.4398 24.3583 26.4398C24.8352 26.4398 25.2823 26.5273 25.6698 26.7752C26.1467 27.0669 26.7279 27.2127 27.2495 27.2127C28.3077 27.2127 29.336 26.6294 29.8875 25.696L30.9307 23.946C31.4672 22.969 31.512 21.8606 30.9605 20.9565" stroke="black" stroke-width="2"/>
</svg>
