<svg width="75" height="75" viewBox="0 0 75 75" fill="none" xmlns="http://www.w3.org/2000/svg">
<g clip-path="url(#clip0_451_2268)">
<path d="M37.8824 6.91016C43.1651 6.90994 48.3382 8.41765 52.7936 11.2561C57.249 14.0945 60.8017 18.1457 63.0341 22.9337C65.2664 27.7216 66.0858 33.0472 65.3958 38.2847C64.7057 43.5222 62.5351 48.4539 59.1389 52.5003C63.0084 55.0595 65.4073 58.3278 65.6169 61.9014L65.6324 62.4102L37.8824 68.5768L10.1324 62.4102L10.1478 61.9014C10.3544 58.3247 12.7563 55.0564 16.6228 52.4972C12.4217 47.504 10.1226 41.1856 10.1324 34.6602C10.1324 27.3004 13.056 20.2421 18.2601 15.0379C23.4643 9.83381 30.5226 6.91016 37.8824 6.91016ZM37.8824 40.8268C33.6274 40.8268 30.174 42.8988 30.174 45.4518C30.174 48.0048 33.6274 50.0768 37.8824 50.0768C42.1374 50.0768 45.5907 48.0048 45.5907 45.4518C45.5907 42.8988 42.1374 40.8268 37.8824 40.8268ZM28.6324 27.2435C25.2253 27.2435 22.4657 27.4822 22.4657 30.0352C22.4657 32.5882 25.2253 34.6602 28.6324 34.6602C32.0394 34.6602 34.799 32.5882 34.799 30.0352C34.799 27.4822 32.0394 27.2435 28.6324 27.2435ZM47.1324 27.2435C43.7253 27.2435 40.9657 27.4822 40.9657 30.0352C40.9657 32.5882 43.7253 34.6602 47.1324 34.6602C50.5394 34.6602 53.299 32.5882 53.299 30.0352C53.299 27.4822 50.5394 27.2435 47.1324 27.2435Z" fill="#202D4F"/>
</g>
<defs>
<clipPath id="clip0_451_2268">
<rect x="0.882324" y="0.743164" width="74" height="74" rx="1" fill="white"/>
</clipPath>
</defs>
</svg>
