<svg width="71" height="67" viewBox="0 0 71 67" fill="none" xmlns="http://www.w3.org/2000/svg">
<path opacity="0.6" d="M35.7806 61.1012C35.4212 61.1012 35.0619 61.0232 34.7376 60.8645L24.2874 55.7502C21.322 54.2975 19.0024 52.6672 17.191 50.7678C13.2265 46.614 11.0208 41.2819 10.9857 35.7507L10.863 17.5455C10.8484 15.4444 12.2829 13.5585 14.4273 12.8483L33.6157 6.52345C34.7551 6.13874 36.026 6.13335 37.1858 6.50461L56.4473 12.6142C58.6034 13.2949 60.0613 15.1673 60.0729 17.2657L60.1956 35.4843C60.2336 41.0075 58.1038 46.3612 54.2007 50.5607C52.4098 52.4869 50.1106 54.1415 47.1745 55.6211L36.8177 60.851C36.4964 61.0151 36.1399 61.0985 35.7806 61.1012" fill="#FF0000"/>
<path d="M35.6099 18.5391L33.3997 22.9198C31.8203 26.0495 29.7035 28.8959 27.1399 31.3372L26.8495 31.6032C25.203 33.1533 24.2623 35.2763 24.2359 37.5016V37.7832C24.1923 42.1407 26.8698 46.0912 31.0119 47.7808L31.4314 47.9529C34.148 49.0719 37.217 49.0719 39.9337 47.9529H40.0305C44.2035 46.1946 46.881 42.1795 46.8227 37.7675V30.9773C45.432 34.0572 42.9064 36.5232 39.7401 37.8927C39.7401 37.8927 39.7401 37.8927 39.6433 37.8927C39.5465 37.8927 38.4171 38.3464 37.9331 37.8927V37.8927C37.5008 37.4685 37.4594 36.7994 37.8363 36.3281L37.9493 36.2499H38.0299C41.7338 33.5197 42.5973 28.4611 39.9982 24.7191C37.9009 21.6213 35.6099 18.5391 35.6099 18.5391Z" fill="#F2F2F2"/>
</svg>
