<svg width="53" height="58" viewBox="0 0 53 58" fill="none" xmlns="http://www.w3.org/2000/svg">
<g opacity="0.6">
<path d="M26.7806 56.1007C26.4212 56.1007 26.0619 56.0227 25.7376 55.864L15.2874 50.7498C12.322 49.297 10.0024 47.6667 8.19102 45.7674C4.22653 41.6136 2.02079 36.2814 1.98573 30.7502L1.86303 12.545C1.84842 10.4439 3.28288 8.55805 5.42727 7.84781L24.6157 1.52296C25.7551 1.13825 27.026 1.13287 28.1858 1.50413L47.4473 7.61376C49.6034 8.2944 51.0613 10.1668 51.0729 12.2653L51.1956 30.4839C51.2336 36.007 49.1038 41.3607 45.2007 45.5602C43.4098 47.4864 41.1106 49.141 38.1745 50.6206L27.8177 55.8505C27.4964 56.0146 27.1399 56.098 26.7806 56.1007" fill="#FF0000"/>
<path d="M26.7806 56.1007C26.4212 56.1007 26.0619 56.0227 25.7376 55.864L15.2874 50.7498C12.322 49.297 10.0024 47.6667 8.19102 45.7674C4.22653 41.6136 2.02079 36.2814 1.98573 30.7502L1.86303 12.545C1.84842 10.4439 3.28288 8.55805 5.42727 7.84781L24.6157 1.52296C25.7551 1.13825 27.026 1.13287 28.1858 1.50413L47.4473 7.61376C49.6034 8.2944 51.0613 10.1668 51.0729 12.2653L51.1956 30.4839C51.2336 36.007 49.1038 41.3607 45.2007 45.5602C43.4098 47.4864 41.1106 49.141 38.1745 50.6206L27.8177 55.8505C27.4964 56.0146 27.1399 56.098 26.7806 56.1007" stroke="black" stroke-width="2"/>
</g>
<path d="M26.6099 13.5388L24.3997 17.9196C22.8203 21.0493 20.7035 23.8956 18.1399 26.3369L17.8495 26.6029C16.203 28.153 15.2623 30.2761 15.2359 32.5013V32.7829C15.1923 37.1404 17.8698 41.091 22.0119 42.7805L22.4314 42.9526C25.148 44.0716 28.217 44.0716 30.9337 42.9526H31.0305C35.2035 41.1943 37.881 37.1793 37.8227 32.7673V25.9771C36.432 29.057 33.9064 31.5229 30.7401 32.8925C30.7401 32.8925 30.7401 32.8925 30.6433 32.8925C30.5465 32.8925 29.4171 33.3462 28.9331 32.8925V32.8925C28.5008 32.4683 28.4594 31.7992 28.8363 31.3279L28.9493 31.2497H29.0299C32.7338 28.5195 33.5973 23.4608 30.9982 19.7188C28.9009 16.621 26.6099 13.5388 26.6099 13.5388Z" fill="#F2F2F2"/>
</svg>
