<svg width="70" height="67" viewBox="0 0 70 67" fill="none" xmlns="http://www.w3.org/2000/svg">
<g clip-path="url(#clip0_451_2246)">
<path d="M53.8972 17.2048C54.2677 17.2048 54.6079 17.4098 54.7811 17.7373L59.5273 26.7115C59.8795 27.3775 59.3967 28.179 58.6433 28.179H11.1212C10.3678 28.179 9.88499 27.3775 10.2372 26.7115L14.9834 17.7373C15.1566 17.4098 15.4968 17.2048 15.8674 17.2048H53.8972ZM58.3796 12.2503C58.2063 11.9227 57.8661 11.7178 57.4956 11.7178H12.2689C11.8984 11.7178 11.5582 11.9227 11.385 12.2503L3.07671 27.9596C3.00052 28.1037 2.96069 28.2642 2.96069 28.4271V32.6661C2.96069 33.2184 3.40841 33.6661 3.96069 33.6661H7.76462C8.3169 33.6661 8.76462 34.1138 8.76462 34.6661V51.8708C8.76462 52.4231 9.21233 52.8708 9.76462 52.8708H13.5685C14.1208 52.8708 14.5685 52.4231 14.5685 51.8708V45.6402C14.5685 45.0879 15.0163 44.6402 15.5685 44.6402H54.196C54.7483 44.6402 55.196 45.0879 55.196 45.6402V51.8708C55.196 52.4231 55.6437 52.8708 56.196 52.8708H59.9999C60.5522 52.8708 60.9999 52.4231 60.9999 51.8708V34.6661C60.9999 34.1138 61.4476 33.6661 61.9999 33.6661H65.8038C66.3561 33.6661 66.8038 33.2184 66.8038 32.6661V28.4271C66.8038 28.2642 66.764 28.1037 66.6878 27.9596L58.3796 12.2503ZM15.5685 39.1531C15.0163 39.1531 14.5685 38.7054 14.5685 38.1531V34.6661C14.5685 34.1138 15.0163 33.6661 15.5685 33.6661H54.196C54.7483 33.6661 55.196 34.1138 55.196 34.6661V38.1531C55.196 38.7054 54.7483 39.1531 54.196 39.1531H15.5685Z" fill="#964B00" fill-opacity="0.6"/>
</g>
<defs>
<clipPath id="clip0_451_2246">
<rect width="69.6471" height="65.8449" fill="white" transform="translate(0.0587158 0.743164)"/>
</clipPath>
</defs>
</svg>
