<svg width="53" height="58" viewBox="0 0 53 58" fill="none" xmlns="http://www.w3.org/2000/svg">
<g opacity="0.4">
<path d="M26.6041 56.1007C26.2447 56.1007 25.8854 56.0227 25.5611 55.864L15.1109 50.7498C12.1455 49.297 9.82584 47.6667 8.0145 45.7674C4.05001 41.6136 1.84427 36.2814 1.80922 30.7502L1.68651 12.545C1.6719 10.4439 3.10637 8.55805 5.25075 7.84781L24.4392 1.52296C25.5786 1.13825 26.8495 1.13287 28.0093 1.50413L47.2708 7.61376C49.4269 8.2944 50.8847 10.1668 50.8964 12.2653L51.0191 30.4839C51.0571 36.007 48.9273 41.3607 45.0242 45.5602C43.2333 47.4864 40.9341 49.141 37.998 50.6206L27.6412 55.8505C27.3198 56.0146 26.9634 56.098 26.6041 56.1007" fill="#009ED6"/>
<path d="M26.6041 56.1007C26.2447 56.1007 25.8854 56.0227 25.5611 55.864L15.1109 50.7498C12.1455 49.297 9.82584 47.6667 8.0145 45.7674C4.05001 41.6136 1.84427 36.2814 1.80922 30.7502L1.68651 12.545C1.6719 10.4439 3.10637 8.55805 5.25075 7.84781L24.4392 1.52296C25.5786 1.13825 26.8495 1.13287 28.0093 1.50413L47.2708 7.61376C49.4269 8.2944 50.8847 10.1668 50.8964 12.2653L51.0191 30.4839C51.0571 36.007 48.9273 41.3607 45.0242 45.5602C43.2333 47.4864 40.9341 49.141 37.998 50.6206L27.6412 55.8505C27.3198 56.0146 26.9634 56.098 26.6041 56.1007" stroke="black" stroke-width="2"/>
</g>
<path d="M39.9668 20.0488C39.9063 19.5949 39.5066 19.244 39.0214 19.244C38.5378 19.244 38.1394 19.5926 38.0768 20.0441H15.3176C14.5271 20.0441 13.8863 20.6644 13.8863 21.4297V25.7244C13.8863 26.2637 14.2053 26.7299 14.6701 26.9589L11.4777 36.2647C11.3329 36.687 11.4063 37.151 11.6755 37.512C11.9445 37.8729 12.3763 38.0868 12.8361 38.0868H18.7455C19.3621 38.0868 19.9094 37.7043 20.1038 37.1379L21.7006 32.4835C21.7363 32.4888 21.772 32.4941 21.8085 32.4968C21.8318 32.4986 21.9516 32.5067 22.1456 32.5067C23.0167 32.5067 25.3855 32.3443 27.2633 30.7186C28.3265 29.7983 29.046 28.589 29.4162 27.11H31.9701C32.7606 27.11 33.4014 26.4897 33.4014 25.7245V25.0737H39.8697C40.6602 25.0737 41.301 24.4534 41.301 23.6881V21.4298C41.3009 20.6962 40.7117 20.0973 39.9668 20.0488ZM25.3735 28.637C24.4847 29.4167 23.3474 29.6468 22.6513 29.7117L23.5438 27.1099H26.4234C26.1786 27.7276 25.828 28.2382 25.3735 28.637Z" fill="#030303"/>
</svg>
