<svg width="71" height="67" viewBox="0 0 71 67" fill="none" xmlns="http://www.w3.org/2000/svg">
<path opacity="0.4" d="M35.6041 61.1012C35.2447 61.1012 34.8854 61.0232 34.5611 60.8645L24.1109 55.7502C21.1455 54.2975 18.8258 52.6672 17.0145 50.7678C13.05 46.614 10.8443 41.2819 10.8092 35.7507L10.6865 17.5455C10.6719 15.4444 12.1064 13.5585 14.2508 12.8483L33.4392 6.52345C34.5786 6.13874 35.8495 6.13335 37.0093 6.50461L56.2708 12.6142C58.4269 13.2949 59.8847 15.1673 59.8964 17.2657L60.0191 35.4843C60.0571 41.0075 57.9273 46.3612 54.0242 50.5607C52.2333 52.4869 49.9341 54.1415 46.998 55.6211L36.6412 60.851C36.3198 61.0151 35.9634 61.0985 35.6041 61.1012" fill="#009ED6"/>
<path d="M48.9668 25.0489C48.9063 24.595 48.5066 24.2441 48.0214 24.2441C47.5378 24.2441 47.1394 24.5927 47.0768 25.0443H24.3176C23.5271 25.0443 22.8863 25.6646 22.8863 26.4298V30.7245C22.8863 31.2638 23.2053 31.7301 23.6701 31.959L20.4777 41.2648C20.3329 41.6872 20.4063 42.1512 20.6755 42.5121C20.9445 42.873 21.3763 43.0869 21.8361 43.0869H27.7455C28.3621 43.0869 28.9094 42.7045 29.1038 42.138L30.7006 37.4836C30.7363 37.4889 30.772 37.4942 30.8085 37.497C30.8318 37.4987 30.9516 37.5068 31.1456 37.5068C32.0167 37.5068 34.3855 37.3444 36.2633 35.7187C37.3265 34.7984 38.046 33.5891 38.4162 32.1101H40.9701C41.7606 32.1101 42.4014 31.4898 42.4014 30.7246V30.0738H48.8697C49.6602 30.0738 50.301 29.4535 50.301 28.6883V26.4299C50.3009 25.6963 49.7117 25.0975 48.9668 25.0489ZM34.3735 33.6372C33.4847 34.4169 32.3474 34.6469 31.6513 34.7118L32.5438 32.11H35.4234C35.1786 32.7277 34.828 33.2383 34.3735 33.6372Z" fill="#030303"/>
</svg>
