<svg width="700" height="800" viewBox="0 0 700 800" fill="none" xmlns="http://www.w3.org/2000/svg">
<path d="M175.291 370.367L150.778 377.837L178.835 469.909L203.348 462.44L175.291 370.367Z" fill="#80D4C4"/>
<path d="M142 368.125L124 373.625C119.875 374.875 117.5 379.375 118.75 383.5L149.125 483C150.375 487.125 154.875 489.5 159 488.25L177 482.75C181.125 481.5 183.5 477 182.25 472.875L151.875 373.375C150.625 369.125 146.25 366.875 142 368.125Z" fill="#B4E6DD"/>
<path d="M580.5 188.375L214 300.125C180.625 310.25 161.75 345.625 172 379L205 487.25C210.125 504 227.75 513.375 244.5 508.25L671.5 378.125C688.25 373 697.625 355.375 692.5 338.625L659.5 230.375C649.25 197 614 178.25 580.5 188.375Z" fill="#B4E6DD"/>
<path d="M123.375 275.375C99.6252 282.625 93.1252 313.125 111.75 329.375L212.125 417.125C220.375 424.25 231.75 426.75 242.125 423.625L678.5 290.625C695.25 285.5 704.625 267.875 699.5 251.125L666.5 142.875C661.375 126.125 643.75 116.75 627 121.875L123.375 275.375Z" fill="#007DA9"/>
<path d="M591.125 215C601.48 215 609.875 206.605 609.875 196.25C609.875 185.895 601.48 177.5 591.125 177.5C580.77 177.5 572.375 185.895 572.375 196.25C572.375 206.605 580.77 215 591.125 215Z" fill="white"/>
<path d="M521.875 542C515 542 509.375 536.375 509.375 529.5V445.75H459.375V542C459.375 569.625 481.75 592 509.375 592H650.375V542H521.875Z" fill="#80D4C4"/>
<path d="M662.875 454.5C649.125 454.5 637.875 465.75 637.875 479.5V654.625C637.875 668.375 649.125 679.625 662.875 679.625H701V454.5H662.875Z" fill="#202D4F"/>
<path d="M484.375 491.75C518.893 491.75 546.875 463.768 546.875 429.25C546.875 394.732 518.893 366.75 484.375 366.75C449.857 366.75 421.875 394.732 421.875 429.25C421.875 463.768 449.857 491.75 484.375 491.75Z" fill="#202D4F"/>
<path d="M484.375 454.25C498.182 454.25 509.375 443.057 509.375 429.25C509.375 415.443 498.182 404.25 484.375 404.25C470.568 404.25 459.375 415.443 459.375 429.25C459.375 443.057 470.568 454.25 484.375 454.25Z" fill="white"/>
</svg>
