<svg width="699" height="800" viewBox="0 0 699 800" fill="none" xmlns="http://www.w3.org/2000/svg">
<g clip-path="url(#clip0_103_1719)">
<path d="M175.654 370.367L151.077 377.837L179.207 469.909L203.784 462.44L175.654 370.367Z" fill="#80D4C4"/>
<path d="M142.276 368.125L124.229 373.625C120.093 374.875 117.712 379.375 118.965 383.5L149.42 483C150.673 487.125 155.185 489.5 159.321 488.25L177.368 482.75C181.504 481.5 183.885 477 182.631 472.875L152.177 373.375C150.924 369.125 146.537 366.875 142.276 368.125Z" fill="#B4E6DD"/>
<path d="M581.925 188.375L214.464 300.125C181.002 310.25 162.078 345.625 172.354 379L205.441 487.25C210.579 504 228.25 513.375 245.044 508.25L673.163 378.125C689.957 373 699.357 355.375 694.218 338.625L661.132 230.375C650.855 197 615.513 178.25 581.925 188.375Z" fill="#B4E6DD"/>
<path d="M123.602 275.375C99.7899 282.625 93.2729 313.125 111.947 329.375L212.585 417.125C220.856 424.25 232.261 426.75 242.663 423.625L680.182 290.625C696.975 285.5 706.375 267.875 701.237 251.125L668.15 142.875C663.012 126.125 645.341 116.75 628.547 121.875L123.602 275.375Z" fill="#007DA9"/>
<path d="M592.578 215C602.96 215 611.377 206.605 611.377 196.25C611.377 185.895 602.96 177.5 592.578 177.5C582.195 177.5 573.779 185.895 573.779 196.25C573.779 206.605 582.195 215 592.578 215Z" fill="white"/>
<path d="M523.146 542C516.253 542 510.613 536.375 510.613 529.5V445.75H460.482V542C460.482 569.625 482.916 592 510.613 592H651.983V542H523.146Z" fill="#80D4C4"/>
<path d="M664.516 454.5C650.73 454.5 639.45 465.75 639.45 479.5V654.625C639.45 668.375 650.73 679.625 664.516 679.625H702.741V454.5H664.516Z" fill="#202D4F"/>
<path d="M485.548 491.75C520.156 491.75 548.212 463.768 548.212 429.25C548.212 394.732 520.156 366.75 485.548 366.75C450.94 366.75 422.884 394.732 422.884 429.25C422.884 463.768 450.94 491.75 485.548 491.75Z" fill="#202D4F"/>
<path d="M485.548 454.25C499.391 454.25 510.613 443.057 510.613 429.25C510.613 415.443 499.391 404.25 485.548 404.25C471.705 404.25 460.482 415.443 460.482 429.25C460.482 443.057 471.705 454.25 485.548 454.25Z" fill="white"/>
</g>
<defs>
<clipPath id="clip0_103_1719">
<rect width="699" height="800" fill="white"/>
</clipPath>
</defs>
</svg>
