<svg width="130" height="71" viewBox="0 0 130 71" fill="none" xmlns="http://www.w3.org/2000/svg">
<path d="M127.608 17.1933H116.771V3.15713C116.771 1.62487 115.782 0.384644 114.559 0.384644L32.1126 0.384644C30.89 0.384644 29.9004 1.62487 29.9004 3.15713V25.2816L3.06319 11.275C2.38035 10.9201 1.60165 11.0144 0.985175 11.5282C0.370178 12.042 0 12.9089 0 13.8349V57.1633C0 58.0893 0.368703 58.9562 0.985175 59.47C1.35388 59.7787 1.78158 59.9358 2.21222 59.9358C2.49981 59.9358 2.78887 59.8656 3.06319 59.7232L29.9004 45.724V67.8429C29.9004 69.3752 30.89 70.6154 32.1126 70.6154H114.559C115.782 70.6154 116.771 69.3752 116.771 67.8429V53.7901H127.608C128.831 53.7901 129.821 52.5499 129.821 51.0176V19.9676C129.821 18.4354 128.829 17.1933 127.608 17.1933ZM29.8517 39.741L4.42444 53.0064V17.9936L29.8399 31.259C29.8591 31.2683 29.8797 31.272 29.8989 31.2812V39.7244C29.8842 39.7318 29.8679 39.7336 29.8517 39.741ZM112.347 65.0704H34.3248V5.92962H112.347V65.0704ZM125.396 48.2451H116.771V22.7401H125.396V48.2451Z" fill="#009ED6"/>
<path d="M125.396 48.2451H116.771V22.7401H125.396V48.2451Z" fill="#009ED6"/>
<path d="M112.347 65.0704H34.3248V5.92962H112.347V65.0704Z" fill="#009ED6"/>
<path d="M29.8517 39.741L4.42444 53.0064V17.9936L29.8399 31.259C29.8591 31.2683 29.8797 31.272 29.8989 31.2812V39.7244C29.8842 39.7318 29.8679 39.7336 29.8517 39.741Z" fill="#009ED6"/>
<circle cx="104.282" cy="15.2821" r="6.38462" fill="white"/>
</svg>
